<svg xmlns="http://www.w3.org/2000/svg" viewBox="0 0 13 16"><defs><style>.cls-1{fill:#f67173;}</style></defs><g id="Layer_2" data-name="Layer 2"><g id="_04_transcript" data-name="04 transcript"><path class="cls-1" d="M11.75,2H9V1.5A1.5,1.5,0,0,0,7.5,0h-2A1.5,1.5,0,0,0,4,1.5V2H1.25A1.25,1.25,0,0,0,0,3.25v1a.5.5,0,0,0,.5.5h12a.5.5,0,0,0,.5-.5v-1A1.25,1.25,0,0,0,11.75,2ZM5,1.5A.5.5,0,0,1,5.5,1h2a.5.5,0,0,1,.5.5V2H5Z"/><path class="cls-1" d="M1,5.75a.16.16,0,0,0-.16.16l.42,8.66A1.49,1.49,0,0,0,2.7,16h7.6a1.49,1.49,0,0,0,1.49-1.43l.42-8.66a.16.16,0,0,0-.16-.16ZM8.5,7a.5.5,0,0,1,1,0v6.5a.5.5,0,0,1-1,0ZM6,7A.5.5,0,0,1,7,7v6.5a.5.5,0,0,1-1,0ZM3.5,7a.5.5,0,0,1,1,0v6.5a.5.5,0,0,1-1,0Z"/></g></g></svg>