<svg xmlns="http://www.w3.org/2000/svg" viewBox="0 0 15 15"><defs><style>.cls-1{fill:#90b2cc;}</style></defs><g id="Layer_2" data-name="Layer 2"><g id="_04_transcript" data-name="04 transcript"><path class="cls-1" d="M7.5,15A7.5,7.5,0,1,1,15,7.5,7.5,7.5,0,0,1,7.5,15ZM7.5.88A6.62,6.62,0,1,0,14.12,7.5,6.63,6.63,0,0,0,7.5.88Z"/><path class="cls-1" d="M10.59,11a.42.42,0,0,1-.31-.13L7.19,7.81a.44.44,0,0,1-.13-.31V2.65a.44.44,0,1,1,.88,0V7.32l3,3a.44.44,0,0,1,0,.62A.43.43,0,0,1,10.59,11Z"/></g></g></svg>