<svg xmlns="http://www.w3.org/2000/svg" viewBox="0 0 15 15"><defs><style>.cls-1{fill:#90b2cc;}</style></defs><g id="Layer_2" data-name="Layer 2"><g id="_04_transcript" data-name="04 transcript"><path class="cls-1" d="M13.24,1.17h-.7V0H11.37V1.17H3.63V0H2.46V1.17h-.7A1.76,1.76,0,0,0,0,2.93V13.24A1.76,1.76,0,0,0,1.76,15H13.24A1.76,1.76,0,0,0,15,13.24V2.93A1.76,1.76,0,0,0,13.24,1.17ZM1.76,2.34h.7V3.52H3.63V2.34h7.74V3.52h1.17V2.34h.7a.59.59,0,0,1,.59.59V4.34H1.17V2.93A.59.59,0,0,1,1.76,2.34ZM13.24,13.83H1.76a.58.58,0,0,1-.59-.59V5.51H13.83v7.73A.58.58,0,0,1,13.24,13.83Z"/></g></g></svg>